<svg xmlns="http://www.w3.org/2000/svg" fill="none" viewBox="0 0 128 128" id="Robot"><rect width="84" height="38" x="22" y="45" stroke="#ffffff" stroke-width="6" rx="19" class="colorStroke1b1b1b svgStroke"></rect><path stroke="#ffffff" stroke-width="6" d="M101 51.5V49C101 37.9543 92.0457 29 81 29H78.5M28 51.5V49C28 37.9543 36.9543 29 48 29H50.5M101 77V79C101 90.0457 92.0457 99 81 99H48C36.9543 99 28 90.0457 28 79V77" class="colorStroke1b1b1b svgStroke"></path><circle cx="6" cy="6" r="6" stroke="#ffffff" stroke-width="6" transform="matrix(1 0 0 -1 36 70)" class="colorStroke1b1b1b svgStroke"></circle><circle cx="6" cy="6" r="6" stroke="#ffffff" stroke-width="6" transform="matrix(1 0 0 -1 79 70)" class="colorStroke1b1b1b svgStroke"></circle><path stroke="#ffffff" stroke-width="6" d="M76 44L77.2973 34.4862C78.198 27.8815 73.064 22 66.3982 22H62.6018C55.936 22 50.802 27.8815 51.7027 34.4862L53 44" class="colorStroke1b1b1b svgStroke"></path></svg>